<svg xmlns="http://www.w3.org/2000/svg" width="64" height="64" viewBox="0 0 64 64"><rect width="64" height="64" rx="15" fill="#8b2be1"/><rect x=".5" y=".5" width="63" height="63" rx="14.5" fill="none" stroke="#fff" stroke-opacity=".08"/><svg x="8.96" y="12.61" width="46.08" height="46.08" viewBox="6 8 108 108"><path d="M26.56,92.11 A45,45 0 0 1 15.25,57.3" fill="none" stroke="#ffffff" stroke-width="13"/><path d="M15.98,52.64 A45,45 0 0 1 37.5,23.03" fill="none" stroke="#ffffff" stroke-width="13" stroke-opacity=".8"/><path d="M41.7,20.89 A45,45 0 0 1 78.3,20.89" fill="none" stroke="#ffffff" stroke-width="13"/><path d="M82.5,23.03 A45,45 0 0 1 104.02,52.64" fill="none" stroke="#ffffff" stroke-width="13" stroke-opacity=".8"/><path d="M104.75,57.3 A45,45 0 0 1 93.44,92.11" fill="none" stroke="#ffffff" stroke-width="13"/><path d="M55.27,58.31 L82.16,33.63 L64.73,65.69 Z" fill="#ffffff" stroke="#ffffff" stroke-width="3" stroke-linejoin="round"/><circle cx="60" cy="62" r="9" fill="#ffffff"/></svg></svg>